<svg width="428" height="65" viewBox="0 0 428 65" fill="none" xmlns="http://www.w3.org/2000/svg">
    <path d="M146.039 2L146.064 1.00033L146.031 0.999472L145.997 1.00084L146.039 2ZM262.837 5L262.811 5.99967L262.841 6.00044L262.871 5.99942L262.837 5ZM380.677 1V0H380.661L380.644 0.000575602L380.677 1ZM426.041 2C426.593 2 427.041 1.55228 427.041 1C427.041 0.447715 426.593 0 426.041 0V1V2ZM73.0398 5L72.9987 5.99916L73.0398 6.00084L73.0809 5.99916L73.0398 5ZM146.039 2L146.013 2.99967L262.811 5.99967L262.837 5L262.862 4.00033L146.064 1.00033L146.039 2ZM262.837 5L262.871 5.99942L380.711 1.99942L380.677 1L380.644 0.000575602L262.803 4.00058L262.837 5ZM380.677 1V2H426.041V1V0H380.677V1ZM0.0410156 2L-4.62942e-05 2.99916L72.9987 5.99916L73.0398 5L73.0809 4.00084L0.0820775 1.00084L0.0410156 2ZM73.0398 5L73.0809 5.99916L146.08 2.99916L146.039 2L145.997 1.00084L72.9987 4.00084L73.0398 5Z" fill="#EF4444"/>
</svg>
