<svg xmlns="http://www.w3.org/2000/svg" width="12" height="10" viewBox="0 0 12 10" fill="none">
    <path d="M0 5.00407C0.00417137 5.44281 0.185866 5.86228 0.505714 6.17158L4.18286 9.7575C4.34345 9.91282 4.5607 10 4.78714 10C5.01359 10 5.23083 9.91282 5.39143 9.7575C5.47177 9.67997 5.53553 9.58774 5.57905 9.48612C5.62257 9.38449 5.64497 9.27549 5.64497 9.1654C5.64497 9.05532 5.62257 8.94632 5.57905 8.84469C5.53553 8.74307 5.47177 8.65084 5.39143 8.57331L2.57143 5.83801L11.1429 5.83801C11.3702 5.83801 11.5882 5.75015 11.7489 5.59375C11.9097 5.43736 12 5.22525 12 5.00407C12 4.7829 11.9097 4.57079 11.7489 4.41439C11.5882 4.258 11.3702 4.17014 11.1429 4.17014L2.57143 4.17014L5.39143 1.4265C5.55283 1.27057 5.64396 1.05865 5.64476 0.837352C5.64557 0.616056 5.55598 0.403513 5.39571 0.24648C5.23545 0.089447 5.01763 0.000786781 4.79017 4.76837e-06C4.56272 -0.000777245 4.34426 0.0863838 4.18286 0.242311L0.505714 3.82823C0.183782 4.13958 0.00191402 4.56244 0 5.00407Z" fill="black" fill-opacity="0.65"/>
</svg>