<svg xmlns="http://www.w3.org/2000/svg" width="12" height="12" viewBox="0 0 12 12" fill="none">
    <path d="M11.6667 5.99232C11.6626 5.5539 11.486 5.13474 11.175 4.82566L7.6 1.24233C7.44386 1.08712 7.23266 1 7.0125 1C6.79235 1 6.58114 1.08712 6.425 1.24233C6.34689 1.3198 6.2849 1.41196 6.24259 1.51351C6.20028 1.61506 6.1785 1.72398 6.1785 1.83399C6.1785 1.944 6.20028 2.05292 6.24259 2.15447C6.2849 2.25602 6.34689 2.34819 6.425 2.42566L9.16667 5.15899H0.833333C0.61232 5.15899 0.400358 5.24679 0.244078 5.40307C0.0877975 5.55935 0 5.77131 0 5.99232C0 6.21334 0.0877975 6.4253 0.244078 6.58158C0.400358 6.73786 0.61232 6.82565 0.833333 6.82565H9.16667L6.425 9.56732C6.26808 9.72313 6.17949 9.9349 6.1787 10.156C6.17792 10.3772 6.26502 10.5896 6.42083 10.7465C6.57665 10.9034 6.78842 10.992 7.00955 10.9928C7.23069 10.9936 7.44308 10.9065 7.6 10.7506L11.175 7.16732C11.488 6.8562 11.6648 6.43364 11.6667 5.99232Z" fill="white"/>
</svg>