<svg viewBox="0 0 34 32" fill="none" xmlns="http://www.w3.org/2000/svg">
    <path fill-rule="evenodd" clip-rule="evenodd" d="M12.5312 19.209C12.6278 18.406 10.2408 15.3291 9.80476 13.8555C8.86926 12.3708 8.53812 10.0086 9.5564 8.43843C9.96206 7.81477 9.7882 7.27389 9.7882 6.41015C9.7882 -2.14453 24.7644 -2.14453 24.7644 6.41015C24.7644 7.4919 24.5188 7.74578 25.1011 8.59849C26.0807 10.0197 25.5785 12.5419 24.7506 13.861C24.218 15.4091 21.7151 18.337 21.8889 19.2146C22.0462 23.6023 12.5064 23.456 12.5312 19.2146V19.209ZM17.9897 26.7979H18.5167C18.7444 26.7971 18.9625 26.7066 19.1238 26.5459C19.285 26.3852 19.3763 26.1673 19.3777 25.9396V24.5405C19.3777 24.4275 19.3554 24.3155 19.3122 24.2111C19.2689 24.1066 19.2055 24.0117 19.1255 23.9317C19.0456 23.8518 18.9507 23.7884 18.8462 23.7451C18.7418 23.7018 18.6298 23.6796 18.5167 23.6796H15.3957C15.1675 23.6803 14.949 23.7712 14.7876 23.9325C14.6263 24.0938 14.5354 24.3124 14.5347 24.5405V25.9396C14.5361 26.1675 14.6273 26.3857 14.7884 26.5469C14.9496 26.708 15.1678 26.7992 15.3957 26.8006H15.931L14.9017 32.0107H18.9748L17.9897 26.7979ZM0 32.0107C0.405657 26.7675 -0.623663 26.98 3.76682 25.3381C5.92405 24.5114 7.99076 23.4656 9.93446 22.217L13.6875 32.0107H0ZM24.1573 21.7727C25.9253 22.9561 27.8364 23.9103 29.8448 24.6123C33.9427 25.9755 33.9427 26.1659 33.9041 32.0107H20.2691L24.1573 21.7727Z" fill="black" fill-opacity="0.14"/>
</svg>
