<svg viewBox="0 0 11 10" fill="none" xmlns="http://www.w3.org/2000/svg">
    <path d="M9.78804 1.84723L4.03012 7.60473C3.99141 7.6436 3.9454 7.67443 3.89474 7.69548C3.84408 7.71652 3.78977 7.72735 3.73491 7.72735C3.68006 7.72735 3.62574 7.71652 3.57508 7.69548C3.52442 7.67443 3.47842 7.6436 3.4397 7.60473L1.21304 5.37598C1.17432 5.33711 1.12832 5.30628 1.07766 5.28523C1.027 5.26419 0.972685 5.25336 0.917829 5.25336C0.862973 5.25336 0.808657 5.26419 0.757998 5.28523C0.707339 5.30628 0.661333 5.33711 0.62262 5.37598C0.583755 5.41469 0.552917 5.4607 0.531874 5.51136C0.510832 5.56202 0.5 5.61633 0.5 5.67119C0.5 5.72604 0.510832 5.78036 0.531874 5.83102C0.552917 5.88168 0.583755 5.92768 0.62262 5.9664L2.85012 8.19348C3.0851 8.42802 3.40354 8.55975 3.73554 8.55975C4.06754 8.55975 4.38598 8.42802 4.62095 8.19348L10.3785 2.43723C10.4173 2.39853 10.448 2.35255 10.469 2.30192C10.4901 2.2513 10.5009 2.19704 10.5009 2.14223C10.5009 2.08742 10.4901 2.03316 10.469 1.98254C10.448 1.93191 10.4173 1.88593 10.3785 1.84723C10.3397 1.80836 10.2937 1.77753 10.2431 1.75648C10.1924 1.73544 10.1381 1.72461 10.0832 1.72461C10.0284 1.72461 9.97407 1.73544 9.92341 1.75648C9.87276 1.77753 9.82675 1.80836 9.78804 1.84723Z" fill="#3E58D9" stroke="#3E58D9"/>
</svg>
