<svg xmlns="http://www.w3.org/2000/svg" viewBox="0 0 20 20" width="20" height="20">
  <defs>
    <linearGradient id="bg" x1="0" y1="20" x2="24.12" y2="9.28" gradientUnits="userSpaceOnUse">
      <stop stop-color="#4E6CF2"/>
      <stop offset="1" stop-color="#553EA8"/>
    </linearGradient>
  </defs>

  <rect width="20" height="20" rx="6" fill="url(#bg)"/>

  <path
    fill="#fff"
    d="M14.288 7.041 8.53 12.798a.42.42 0 0 1-.59 0l-2.227-2.229a.417.417 0 0 0-.59 0 .417.417 0 0 0 0 .59l2.227 2.228a1.25 1.25 0 0 0 1.77 0l5.758-5.756a.417.417 0 0 0 0-.59.417.417 0 0 0-.59 0Z"
  />
</svg>