<svg xmlns="http://www.w3.org/2000/svg" width="8" height="8" viewBox="0 0 8 8" fill="none">
    <path d="M7.17079 0.170792C7.0614 0.0614341 6.91305 0 6.75838 0C6.6037 0 6.45535 0.0614341 6.34596 0.170792L3.67079 2.84596L0.995626 0.170792C0.886234 0.0614341 0.737888 0 0.583209 0C0.42853 0 0.280183 0.0614341 0.170792 0.170792C0.0614341 0.280183 0 0.42853 0 0.583209C0 0.737888 0.0614341 0.886234 0.170792 0.995626L2.84596 3.67079L0.170792 6.34596C0.0614341 6.45535 0 6.6037 0 6.75838C0 6.91305 0.0614341 7.0614 0.170792 7.17079C0.280183 7.28015 0.42853 7.34158 0.583209 7.34158C0.737888 7.34158 0.886234 7.28015 0.995626 7.17079L3.67079 4.49563L6.34596 7.17079C6.45535 7.28015 6.6037 7.34158 6.75838 7.34158C6.91305 7.34158 7.0614 7.28015 7.17079 7.17079C7.28015 7.0614 7.34158 6.91305 7.34158 6.75838C7.34158 6.6037 7.28015 6.45535 7.17079 6.34596L4.49563 3.67079L7.17079 0.995626C7.28015 0.886234 7.34158 0.737888 7.34158 0.583209C7.34158 0.42853 7.28015 0.280183 7.17079 0.170792Z" fill="white"/>
</svg>