<svg width="20" height="20" viewBox="0 0 20 20" fill="none" xmlns="http://www.w3.org/2000/svg">
<path d="M15 5.0018C14.8437 4.84558 14.6318 4.75781 14.4108 4.75781C14.1898 4.75781 13.9779 4.84558 13.8217 5.0018L9.99999 8.82347L6.17832 5.0018C6.02205 4.84558 5.81012 4.75781 5.58915 4.75781C5.36818 4.75781 5.15626 4.84558 4.99999 5.0018C4.84376 5.15807 4.756 5.37 4.756 5.59097C4.756 5.81194 4.84376 6.02386 4.99999 6.18013L8.82165 10.0018L4.99999 13.8235C4.84376 13.9797 4.756 14.1917 4.756 14.4126C4.756 14.6336 4.84376 14.8455 4.99999 15.0018C5.15626 15.158 5.36818 15.2458 5.58915 15.2458C5.81012 15.2458 6.02205 15.158 6.17832 15.0018L9.99999 11.1801L13.8217 15.0018C13.9779 15.158 14.1898 15.2458 14.4108 15.2458C14.6318 15.2458 14.8437 15.158 15 15.0018C15.1562 14.8455 15.244 14.6336 15.244 14.4126C15.244 14.1917 15.1562 13.9797 15 13.8235L11.1783 10.0018L15 6.18013C15.1562 6.02386 15.244 5.81194 15.244 5.59097C15.244 5.37 15.1562 5.15807 15 5.0018Z" fill="black" fill-opacity="0.45"/>
</svg>
