<svg width="12" height="12" viewBox="0 0 12 12" fill="none" xmlns="http://www.w3.org/2000/svg">
<g clip-path="url(#clip0_143_391)">
<path d="M11.4266 0.573C11.0867 0.233599 10.6259 0.0429688 10.1456 0.0429688C9.66523 0.0429688 9.20451 0.233599 8.86458 0.573L0.732584 8.705C0.499709 8.93657 0.315065 9.21201 0.189333 9.5154C0.0636008 9.81878 -0.000722694 10.1441 8.37846e-05 10.4725V11.499C8.37846e-05 11.6316 0.0527622 11.7588 0.14653 11.8526C0.240299 11.9463 0.367476 11.999 0.500084 11.999H1.52658C1.85496 11.9999 2.18027 11.9357 2.48366 11.8101C2.78706 11.6844 3.06251 11.4998 3.29408 11.267L11.4266 3.1345C11.7658 2.7946 11.9564 2.33398 11.9564 1.85375C11.9564 1.37352 11.7658 0.912903 11.4266 0.573ZM2.58708 10.56C2.30509 10.8401 1.92407 10.9979 1.52658 10.999H1.00008V10.4725C0.999578 10.2755 1.03816 10.0803 1.1136 9.89823C1.18904 9.71619 1.29984 9.55093 1.43958 9.412L7.61108 3.2405L8.76108 4.3905L2.58708 10.56ZM10.7191 2.4275L9.46608 3.681L8.31608 2.5335L9.56958 1.28C9.64509 1.20465 9.7347 1.14492 9.8333 1.1042C9.9319 1.06349 10.0375 1.0426 10.1442 1.04271C10.2509 1.04283 10.3565 1.06395 10.455 1.10488C10.5535 1.14581 10.643 1.20574 10.7183 1.28125C10.7937 1.35676 10.8534 1.44637 10.8941 1.54497C10.9348 1.64356 10.9557 1.74921 10.9556 1.85588C10.9555 1.96256 10.9344 2.06816 10.8935 2.16667C10.8525 2.26517 10.7926 2.35465 10.7171 2.43L10.7191 2.4275Z" fill="#4E6CF2"/>
</g>
<defs>
<clipPath id="clip0_143_391">
<rect width="12" height="12" fill="white"/>
</clipPath>
</defs>
</svg>
