<svg width="14" height="14" viewBox="0 0 14 14" fill="none" xmlns="http://www.w3.org/2000/svg">
<g clip-path="url(#clip0_2370_1926)">
<path fill-rule="evenodd" clip-rule="evenodd" d="M13.7483 12.1297C13.3161 13.4429 11.6231 14.0978 10.4135 13.9886C8.76148 13.8393 6.96388 12.9631 5.59935 11.998C3.59361 10.5793 1.71481 8.38488 0.620009 6.05621C-0.153724 4.41074 -0.327322 2.38765 0.823478 0.887786C1.24908 0.333386 1.70921 0.0372935 2.40081 0.00276018C3.36028 -0.0439065 3.49468 0.504988 3.82414 1.35992C4.06961 1.99925 4.39721 2.65142 4.58014 3.31409C4.92268 4.55076 3.72521 4.60244 3.57401 5.61324C3.47974 6.25071 4.25255 7.10558 4.60161 7.56012C5.28575 8.45052 6.10801 9.21849 7.03574 9.80276C7.56681 10.1378 8.42454 10.7416 9.03308 10.4084C9.97014 9.89509 9.88148 8.31503 11.1919 8.84983C11.8704 9.1261 12.5275 9.52479 13.1752 9.87385C14.1767 10.4124 14.13 10.9705 13.7483 12.1297C14.0339 11.2636 13.4627 12.9958 13.7483 12.1297Z" fill="white"/>
</g>
<defs>
<clipPath id="clip0_2370_1926">
<rect width="14" height="14" fill="white"/>
</clipPath>
</defs>
</svg>
