<svg width="12" height="13" viewBox="0 0 12 13" fill="none" xmlns="http://www.w3.org/2000/svg">
<g clip-path="url(#clip0_2370_1923)">
<path d="M7.28353 0H4.72379H2.60229C1.88306 0 1.26919 0.252312 0.760675 0.760675C0.252312 1.26919 0 1.88307 0 2.60229V7.17055C0 7.89351 0.252312 8.50753 0.760675 9.0159C1.26904 9.52052 1.88306 9.77673 2.60229 9.77673C3.27257 9.77673 3.94301 9.77673 4.6133 9.77673C4.46649 10.3491 4.27823 10.8954 4.04852 11.4073C3.82255 11.9233 3.44213 12.4167 2.91117 12.8874C3.92805 12.6238 4.83195 12.2283 5.62644 11.705C6.42109 11.1852 7.10649 10.5411 7.67891 9.77673C8.25413 9.77673 8.82966 9.77673 9.40488 9.77673C10.1241 9.77673 10.738 9.52052 11.2463 9.0159C11.755 8.50753 12.0073 7.89351 12.0073 7.17055V2.60229C12.0073 1.88307 11.755 1.26904 11.2463 0.760675C10.738 0.252312 10.1241 0 9.40488 0H7.28353Z" fill="white"/>
</g>
<defs>
<clipPath id="clip0_2370_1923">
<rect width="12" height="12.9351" fill="white"/>
</clipPath>
</defs>
</svg>
