<svg width="14" height="14" viewBox="0 0 14 14" fill="none" xmlns="http://www.w3.org/2000/svg">
<g clip-path="url(#clip0_2370_1917)">
<path fill-rule="evenodd" clip-rule="evenodd" d="M6.99797 0C3.13899 0 0 3.13987 0 6.99994C0 8.53079 0.493687 9.95051 1.33292 11.1029L0.460714 13.7036L3.1513 12.8437C4.25792 13.5762 5.57854 14 7.00203 14C10.861 14 14 10.86 14 7.00006C14 3.14 10.861 0.000115712 7.00203 0.000115712L6.99797 0ZM5.04375 3.55566C4.90802 3.23058 4.80515 3.21827 4.59952 3.20991C4.5295 3.20584 4.45148 3.20178 4.36498 3.20178C4.09746 3.20178 3.81776 3.27994 3.64906 3.45276C3.44343 3.66263 2.93324 4.15228 2.93324 5.15643C2.93324 6.16059 3.66554 7.13176 3.76423 7.26764C3.86711 7.4033 5.19189 9.49384 7.24887 10.3459C8.85744 11.0125 9.33476 10.9507 9.70085 10.8725C10.2356 10.7573 10.9063 10.3621 11.075 9.88489C11.2437 9.40743 11.2437 9.00001 11.1942 8.9136C11.1449 8.82719 11.009 8.77795 10.8034 8.67493C10.5978 8.57203 9.59798 8.07819 9.40872 8.01234C9.22353 7.94242 9.0467 7.96716 8.90691 8.16472C8.70941 8.44044 8.51609 8.72034 8.35969 8.88898C8.23627 9.02068 8.03458 9.03717 7.86599 8.96714C7.6397 8.8726 7.00622 8.65019 6.22446 7.95473C5.61965 7.41572 5.20828 6.74501 5.08903 6.54339C4.96968 6.3377 5.07671 6.21819 5.17123 6.10716C5.2741 5.97952 5.3728 5.88905 5.47567 5.76966C5.57855 5.65038 5.63614 5.58859 5.70197 5.44864C5.77199 5.31287 5.72252 5.17292 5.67317 5.07002C5.62382 4.96712 5.21245 3.96296 5.04375 3.55566Z" fill="white"/>
</g>
<defs>
<clipPath id="clip0_2370_1917">
<rect width="14" height="14" fill="white"/>
</clipPath>
</defs>
</svg>
